<svg width="20" height="21" viewBox="0 0 20 21" fill="none" xmlns="http://www.w3.org/2000/svg">
    <path d="M16 3.5H4C2.89543 3.5 2 4.39543 2 5.5V17.5C2 18.6046 2.89543 19.5 4 19.5H16C17.1046 19.5 18 18.6046 18 17.5V5.5C18 4.39543 17.1046 3.5 16 3.5Z" stroke="#047857" stroke-width="1.5" stroke-linecap="round" stroke-linejoin="round"/>
    <path d="M14 1.5V5.5" stroke="#047857" stroke-width="1.5" stroke-linecap="round" stroke-linejoin="round"/>
    <path d="M6 1.5V5.5" stroke="#047857" stroke-width="1.5" stroke-linecap="round" stroke-linejoin="round"/>
    <path d="M2 7.5H18" stroke="#047857" stroke-width="1.5" stroke-linecap="round" stroke-linejoin="round"/>
    <rect x="5" y="10.5" width="2" height="2" fill="#047857" rx="0.5"/>
    <rect x="9" y="10.5" width="2" height="2" fill="#047857" rx="0.5"/>
    <rect x="13" y="10.5" width="2" height="2" fill="#047857" rx="0.5"/>
    <rect x="5" y="14.5" width="2" height="2" fill="#047857" rx="0.5"/>
    <rect x="9" y="14.5" width="2" height="2" fill="#047857" rx="0.5"/>
    <rect x="13" y="14.5" width="2" height="2" fill="#047857" rx="0.5"/>
</svg>